<svg xmlns="http://www.w3.org/2000/svg" viewBox="0 0 200 200" width="32" height="32">
  <defs>
    <linearGradient id="leaf" x1="0%" y1="0%" x2="100%" y2="100%">
      <stop offset="0%" style="stop-color:#2D6A4F"/>
      <stop offset="100%" style="stop-color:#40916C"/>
    </linearGradient>
    <linearGradient id="gold" x1="0%" y1="0%" x2="100%" y2="100%">
      <stop offset="0%" style="stop-color:#D4A017"/>
      <stop offset="100%" style="stop-color:#E8B92F"/>
    </linearGradient>
  </defs>
  <g transform="translate(100, 25)">
    <path d="M 0 150 C 0 150, -30 90, -20 50 C -10 10, 20 -5, 30 0 C 40 5, 35 25, 25 45 C 15 65, 5 70, 0 75 C 5 65, 15 45, 22 30 C 18 45, 8 65, 0 80" fill="url(#leaf)" opacity="0.95"/>
    <path d="M 0 150 C 0 150, 30 90, 20 50 C 10 10, -20 -5, -30 0 C -40 5, -35 25, -25 45 C -15 65, -5 70, 0 75 C -5 65, -15 45, -22 30 C -18 45, -8 65, 0 80" fill="url(#leaf)" opacity="0.70"/>
    <line x1="0" y1="0" x2="0" y2="145" stroke="#1B4332" stroke-width="2" stroke-linecap="round" opacity="0.3"/>
    <circle cx="0" cy="155" r="6" fill="url(#gold)"/>
  </g>
</svg>
